<svg width="256" height="256" xmlns="http://www.w3.org/2000/svg" xml:space="preserve" version="1.1">
 <g>
  <title>Layer 1</title>
  <g id="_x33_0_Mulberry"/>
  <g id="_x32_9_Star_Fruit"/>
  <g id="_x32_8_Apricot"/>
  <g id="_x32_7_Litchi"/>
  <g id="_x32_6_Kiwi"/>
  <g id="_x32_5_Jackfruit"/>
  <g id="_x32_4_Avacado"/>
  <g id="_x32_3_Blueberry"/>
  <g id="_x32_2_Purple_Grapes"/>
  <g id="_x32_1_Melon"/>
  <g id="_x32_0_Green_Grapes"/>
  <g id="_x31_9_Papaya"/>
  <g id="_x31_8_Pineapple"/>
  <g id="_x31_7_Banana"/>
  <g id="_x31_6_Tender_Coconut"/>
  <g id="_x31_5_Strawberry"/>
  <g id="_x31_4_Dragon_Fruit"/>
  <g id="_x31_3_Plum"/>
  <g id="_x31_2_Fig"/>
  <g id="_x31_1_Peach"/>
  <g id="_x31_0_Cherry"/>
  <g id="_x30_9_Sapota"/>
  <g id="_x30_8_Custard_Apple"/>
  <g id="_x30_7_Watermelon"/>
  <g id="_x30_6_Mango"/>
  <g id="_x30_5_Pear"/>
  <g id="_x30_4_Guava" stroke="null">
   <g id="XMLID_195_" stroke="null">
    <g id="XMLID_221_" stroke="null">
     <g id="XMLID_222_" stroke="null">
      <path fill="#97A304" id="XMLID_224_" d="m80.63574,22.02313c-6.64858,10.21187 -7.46656,22.14825 -3.3727,32.53453c11.86075,-1.5403 22.89561,-7.81127 29.54617,-18.02313c6.64858,-10.21383 7.46656,-22.14825 3.3727,-32.53453c-11.86075,1.5403 -22.89759,7.81127 -29.54617,18.02313z" class="st149" stroke="null"/>
      <path id="svg_1" fill="#A88C5C" d="m78.15611,86.88643c-2.18129,0 -3.95161,-1.75587 -3.95161,-3.91935l0,-20.83527c0,-9.49659 -4.78342,-18.26221 -12.7953,-23.44947c-1.82959,-1.18364 -2.3433,-3.61168 -1.14992,-5.42438s3.64536,-2.32222 5.46902,-1.14053c10.2564,6.63938 16.37941,17.86048 16.37941,30.01243l0,20.83527c0,2.16544 -1.76834,3.92131 -3.95161,3.92131l0.00001,-0.00001z" class="st150" stroke="null"/>
     </g>
     <path fill="#ADC21E" id="XMLID_240_" d="m152.34951,138.23972c0,43.97119 -26.39279,77.40522 -73.67377,77.40522s-73.67575,-33.43402 -73.67575,-77.40522c0,-30.5337 28.11371,-70.46013 73.12252,-70.54831c45.37631,-0.09015 74.22699,37.57481 74.22699,70.54831l0.00001,0z" class="st151" stroke="null"/>
     <path fill="#A3BA0B" id="XMLID_664_" d="m78.12252,67.69141c-45.00881,0.08819 -73.12252,40.01461 -73.12252,70.54831c0,43.97119 26.39279,77.40522 73.67575,77.40522c-53.21235,-46.80097 -45.83272,-112.81851 -0.55323,-147.95353z" class="st152" stroke="null"/>
     <path fill="#8D9E08" id="XMLID_995_" d="m24.75804,138.23972c0,-28.30751 24.17396,-64.66145 63.55963,-69.88986c-3.29959,-0.42329 -6.69205,-0.66629 -10.19515,-0.66041c-45.00881,0.09015 -73.12252,40.01657 -73.12252,70.55027c0,43.97119 26.39279,77.40522 73.67575,77.40522c3.40629,0 6.69205,-0.19401 9.87902,-0.53107c-41.0572,-4.36028 -63.79673,-36.07174 -63.79673,-76.87414l0,-0.00001z" class="st153" stroke="null"/>
     <path id="svg_2" fill="#F9DCC7" d="m36.82822,183.17311c-0.25685,0 -0.51371,-0.03919 -0.77056,-0.07839c-0.25685,-0.05879 -0.51371,-0.13718 -0.75081,-0.23516c-0.2371,-0.09798 -0.45443,-0.21556 -0.67177,-0.35274c-0.21734,-0.13718 -0.41492,-0.31355 -0.61447,-0.48992c-0.17782,-0.17637 -0.33589,-0.37234 -0.49395,-0.5879c-0.13633,-0.21556 -0.25685,-0.45073 -0.35564,-0.68589s-0.17782,-0.47032 -0.21734,-0.72508c-0.0573,-0.25476 -0.07903,-0.50952 -0.07903,-0.76427c0,-1.03863 0.41492,-2.05766 1.14597,-2.78274c0.19956,-0.17637 0.39516,-0.33314 0.61447,-0.48992c0.21536,-0.13718 0.43468,-0.25476 0.67177,-0.35274c0.2371,-0.09798 0.49395,-0.17637 0.75081,-0.21556c1.26451,-0.27435 2.64758,0.15677 3.55645,1.05822c0.17782,0.19597 0.35762,0.39194 0.49395,0.6075c0.13831,0.21556 0.25685,0.43113 0.35762,0.66629c0.11855,0.23516 0.17782,0.48992 0.23512,0.74468c0.05927,0.25476 0.07903,0.50952 0.07903,0.76427c0,0.25476 -0.01976,0.50952 -0.07903,0.76427c-0.0573,0.25476 -0.11855,0.48992 -0.23512,0.72508c-0.10077,0.23516 -0.21734,0.47032 -0.35762,0.68589c-0.13633,0.21556 -0.31613,0.41153 -0.49395,0.5879c-0.73105,0.72508 -1.73673,1.15621 -2.78588,1.15621l-0.00002,0z" class="st25" stroke="null"/>
     <path id="svg_3" fill="#F9DCC7" d="m27.51824,170.72918c-1.59447,0 -3.09411,-0.9622 -3.69278,-2.52798c-7.35987,-19.20678 -6.37987,-40.48101 2.68117,-58.37089c0.98,-1.9342 3.34899,-2.71415 5.30701,-1.74215c1.94814,0.972 2.73649,3.32753 1.75649,5.26173c-8.07116,15.9302 -8.93063,34.9077 -2.35713,52.06661c0.77649,2.02434 -0.24895,4.28777 -2.28996,5.05596c-0.46234,0.17441 -0.93653,0.25672 -1.4048,0.25672z" class="st25" stroke="null"/>
    </g>
    <g id="XMLID_196_" stroke="null">
     <path fill="#F2E9C4" id="XMLID_220_" d="m82.06622,176.45143c-0.0079,0.29787 -0.07508,0.60162 -0.03161,0.89361c6.20995,42.27999 34.39479,69.7958 83.97561,69.6547c49.6559,-0.1411 77.78739,-28.5897 83.97561,-69.6547c0.04347,-0.29395 -0.02371,-0.59574 -0.03161,-0.89361l-167.88799,0l-0.00001,0z" class="st157" stroke="null"/>
     <g id="XMLID_197_" stroke="null">
      <g id="XMLID_463_" stroke="null">
       <path fill="#CBB465" id="XMLID_487_" d="m118.19577,187.06307c-0.73697,-1.25027 -1.96,-2.19876 -3.3727,-2.5613c-1.4048,-0.38998 -2.95185,-0.19793 -4.21834,0.51931c-1.24476,0.70548 -2.18919,1.92244 -2.54879,3.31185c-0.74488,2.77098 1.12818,5.95153 3.9358,6.68445c1.40677,0.38998 2.95383,0.19597 4.19858,-0.50756c1.26451,-0.71528 2.20895,-1.9342 2.56657,-3.32165c0.38923,-1.38353 0.16399,-2.8964 -0.56113,-4.12512l0.00001,0.00002z" class="st158" stroke="null"/>
       <path fill="#CBB465" id="XMLID_486_" d="m146.73033,222.15889c-1.27439,-0.72116 -2.81947,-0.94456 -4.22624,-0.56439c-1.41665,0.35078 -2.65746,1.27575 -3.3885,2.51622c-0.71919,1.22088 -0.91677,2.73767 -0.51766,4.11728c0.76859,2.7651 4.01286,4.60132 6.81652,3.8586c1.41665,-0.35274 2.65746,-1.27771 3.37665,-2.49859c0.73105,-1.24047 0.92665,-2.75726 0.52952,-4.13491c-0.3675,-1.38353 -1.33564,-2.58481 -2.59028,-3.29421l-0.00001,0z" class="st158" stroke="null"/>
       <path fill="#CBB465" id="XMLID_485_" d="m166.0201,223.98531c-1.47197,0 -2.92221,0.56439 -3.94766,1.58342c-1.04718,0.99747 -1.6498,2.40844 -1.6498,3.84096c0,1.41097 0.60262,2.81997 1.6498,3.81941c2.07459,2.01651 5.82072,2.01651 7.8716,0c1.04718,-0.99943 1.6498,-2.40844 1.6498,-3.81941c0,-1.43252 -0.60262,-2.84349 -1.6498,-3.84096c-1.02544,-1.01903 -2.47568,-1.58342 -3.92395,-1.58342l0.00001,0z" class="st158" stroke="null"/>
       <path fill="#CBB465" id="XMLID_484_" d="m185.30592,222.1491c-1.27439,0.72116 -2.24254,1.92244 -2.61201,3.30793c-0.39911,1.37765 -0.20153,2.89444 0.52952,4.13491c0.71919,1.22088 1.96,2.1478 3.37665,2.49859c2.8254,0.729 6.06967,-1.10722 6.81652,-3.8586c0.39714,-1.37961 0.20153,-2.8964 -0.51766,-4.11728c-0.73105,-1.24047 -1.97185,-2.16544 -3.3885,-2.51622c-1.40677,-0.38018 -2.95185,-0.15873 -4.20451,0.55067l-0.00001,0z" class="st158" stroke="null"/>
       <path fill="#CBB465" id="XMLID_483_" d="m213.8306,187.04151c-0.73697,1.25027 -0.96222,2.76314 -0.57496,4.14471c0.35762,1.38941 1.30205,2.60637 2.56657,3.32165c1.24476,0.70548 2.79181,0.89753 4.19858,0.50756c2.81947,-0.75447 4.69253,-3.93307 3.9358,-6.68445c-0.3596,-1.38941 -1.30205,-2.60637 -2.54879,-3.31185c-1.26451,-0.71528 -2.81157,-0.90929 -4.21834,-0.51931c-1.41072,0.36254 -2.63375,1.31298 -3.35887,2.5417l0.00001,-0.00001z" class="st158" stroke="null"/>
       <path fill="#CBB465" id="XMLID_482_" d="m166.0201,182.89484c-1.47197,0 -2.92221,0.56439 -3.94766,1.58342c-1.04718,0.99747 -1.6498,2.40844 -1.6498,3.84096c0,1.41097 0.60262,2.81997 1.6498,3.81941c2.07459,2.01651 5.82072,2.01651 7.8716,0c1.04718,-0.99943 1.6498,-2.40844 1.6498,-3.81941c0,-1.43252 -0.60262,-2.84349 -1.6498,-3.84096c-1.02544,-1.01903 -2.47568,-1.58342 -3.92395,-1.58342l0.00001,0z" class="st158" stroke="null"/>
       <path fill="#CBB465" id="XMLID_481_" d="m190.51809,182.89484c-1.47197,0 -2.92221,0.56439 -3.94766,1.58342c-1.04718,0.99747 -1.6498,2.40844 -1.6498,3.84096c0,1.41097 0.60262,2.81997 1.6498,3.81941c2.07459,2.01651 5.82072,2.01651 7.8716,0c1.04718,-0.99943 1.6498,-2.40844 1.6498,-3.81941c0,-1.43252 -0.60262,-2.84349 -1.6498,-3.84096c-1.02544,-1.01903 -2.47568,-1.58342 -3.92395,-1.58342l0.00001,0z" class="st158" stroke="null"/>
       <path fill="#CBB465" id="XMLID_480_" d="m141.52211,182.89484c-1.47197,0 -2.92221,0.56439 -3.94766,1.58342c-1.04718,0.99747 -1.6498,2.40844 -1.6498,3.84096c0,1.41097 0.60262,2.81997 1.6498,3.81941c2.07459,2.01651 5.82072,2.01651 7.8716,0c1.04718,-0.99943 1.6498,-2.40844 1.6498,-3.81941c0,-1.43252 -0.60262,-2.84349 -1.6498,-3.84096c-1.02544,-1.01903 -2.47568,-1.58342 -3.92395,-1.58342l0.00001,0z" class="st158" stroke="null"/>
       <path fill="#CBB465" id="XMLID_479_" d="m129.73051,206.58731c-1.27439,-0.72116 -2.81947,-0.94456 -4.22624,-0.56439c-1.41665,0.35078 -2.65746,1.27575 -3.3885,2.51622c-0.71919,1.22088 -0.91677,2.73767 -0.51766,4.11728c0.76859,2.7651 4.01286,4.60132 6.81652,3.8586c1.41665,-0.35274 2.65746,-1.27771 3.37665,-2.49859c0.73105,-1.24047 0.92665,-2.75726 0.52952,-4.13491c-0.3675,-1.38353 -1.33564,-2.58285 -2.59028,-3.29421l-0.00001,0z" class="st158" stroke="null"/>
       <path fill="#CBB465" id="XMLID_478_" d="m210.1398,206.58731c-1.27439,-0.72116 -2.81947,-0.94456 -4.22624,-0.56439c-1.41665,0.35078 -2.65746,1.27575 -3.3885,2.51622c-0.71919,1.22088 -0.91677,2.73767 -0.51766,4.11728c0.76859,2.7651 4.01286,4.60132 6.81652,3.8586c1.41665,-0.35274 2.65746,-1.27771 3.37665,-2.49859c0.73105,-1.24047 0.92665,-2.75726 0.52952,-4.13491c-0.36948,-1.38353 -1.33762,-2.58285 -2.59028,-3.29421l-0.00001,0z" class="st158" stroke="null"/>
       <path fill="#CBB465" id="XMLID_477_" d="m167.45058,202.4622c-1.2329,-0.69764 -2.72858,-0.91321 -4.08991,-0.54479c-1.37121,0.33902 -2.5725,1.2346 -3.27786,2.43588c-0.69548,1.18168 -0.88714,2.64948 -0.50185,3.98402c0.7429,2.67496 3.88245,4.45238 6.59721,3.73514c1.37121,-0.34098 2.5725,-1.23656 3.26798,-2.41824c0.70734,-1.20128 0.89701,-2.66908 0.51173,-4.00166c-0.35762,-1.34238 -1.29415,-2.50447 -2.50729,-3.19035l-0.00001,0z" class="st158" stroke="null"/>
       <path fill="#CBB465" id="XMLID_465_" d="m147.69255,202.4622c-1.2329,-0.69764 -2.72858,-0.91321 -4.08991,-0.54479c-1.37121,0.33902 -2.5725,1.2346 -3.27786,2.43588c-0.69548,1.18168 -0.88714,2.64948 -0.50185,3.98402c0.7429,2.67496 3.88245,4.45238 6.59721,3.73514c1.37121,-0.34098 2.5725,-1.23656 3.26798,-2.41824c0.70734,-1.20128 0.89701,-2.66908 0.51173,-4.00166c-0.35762,-1.34238 -1.29415,-2.50447 -2.50729,-3.19035l-0.00001,0z" class="st158" stroke="null"/>
       <path fill="#CBB465" id="XMLID_464_" d="m187.20862,202.4622c-1.2329,-0.69764 -2.72858,-0.91321 -4.08991,-0.54479c-1.37121,0.33902 -2.5725,1.2346 -3.27786,2.43588c-0.69548,1.18168 -0.88714,2.64948 -0.50185,3.98402c0.7429,2.67496 3.88245,4.45238 6.59721,3.73514c1.37121,-0.34098 2.5725,-1.23656 3.26798,-2.41824c0.70734,-1.20128 0.89701,-2.66908 0.51173,-4.00166c-0.35762,-1.34238 -1.29415,-2.50447 -2.50729,-3.19035l-0.00001,0z" class="st158" stroke="null"/>
      </g>
     </g>
     <path fill="#A3BA0B" id="XMLID_253_" d="m248.69168,176.45143c-8.20749,37.2887 -35.87862,62.57635 -82.68146,62.70961c-46.80877,0.13326 -74.53522,-24.39012 -82.71702,-62.70961l-1.22697,0c-0.0079,0.29787 -0.07508,0.60162 -0.03161,0.89361c6.20995,42.27999 34.39479,69.7958 83.97561,69.6547c49.6559,-0.1411 77.78739,-28.5897 83.97561,-69.6547c0.04347,-0.29395 -0.02371,-0.59574 -0.03161,-0.89361l-1.26254,0l-0.00001,0z" class="st152" stroke="null"/>
    </g>
   </g>
  </g>
  <g id="_x30_3_Pomegranate"/>
  <g id="_x30_2_Orange"/>
  <g id="_x30_1_Apple"/>
 </g>

</svg>